<?xml version="1.0" encoding="UTF-8" standalone="no"?>
<!-- Created with Inkscape (http://www.inkscape.org/) -->

<svg
   version="1.1"
   id="svg1"
   width="8.2cm"
   height="4.5cm"
   viewBox="0 0 1549.6067 850.39331"
   xmlns="http://www.w3.org/2000/svg"
   xmlns:svg="http://www.w3.org/2000/svg">
  <defs
     id="defs1" />
  <g
     id="g1">
    <g
       id="group-MC1">
      <path
         id="path2"
         d="M 0,0 C -0.54,2.336 -0.809,4.133 -0.809,11.05 V 47.076 H 2.695 V 11.23 c 0,-7.906 0.538,-10.781 1.976,-13.745 2.875,-6.379 8.984,-9.613 17.338,-9.613 8.445,0 14.465,3.234 17.43,9.613 1.348,2.875 1.886,5.749 1.886,13.745 v 35.846 h 3.503 V 11.05 C 44.828,4.223 44.56,2.426 44.02,0 41.774,-10.421 33.509,-15.272 22.009,-15.272 10.51,-15.272 2.246,-10.421 0,0"
         style="fill:#040606;fill-opacity:1;fill-rule:nonzero;stroke:none"
         transform="matrix(1.3333333,0,0,-1.3333333,284.54267,346.22933)" />
      <path
         id="path3"
         d="m 0,0 h -3.324 v 23.359 c 0,10.511 -1.257,17.428 -11.679,17.428 -4.402,0 -7.546,-1.617 -9.791,-3.863 -2.786,-2.965 -3.954,-7.187 -3.954,-11.05 V 0 h -3.324 v 42.763 h 3.324 v -7.995 h 0.09 c 1.527,4.222 6.109,9.074 14.465,9.074 6.108,0 9.881,-2.336 12.037,-6.199 C -0.629,34.858 0,31.174 0,26.053 V 0"
         style="fill:#040606;fill-opacity:1;fill-rule:nonzero;stroke:none"
         transform="matrix(1.3333333,0,0,-1.3333333,403.34133,364.916)" />
      <path
         id="path4"
         d="M 0,0 H -3.324 V 42.763 H 0 Z m 0,50.759 h -3.324 v 8.175 H 0 Z"
         style="fill:#040606;fill-opacity:1;fill-rule:nonzero;stroke:none"
         transform="matrix(1.3333333,0,0,-1.3333333,426.90533,364.916)" />
      <path
         id="path5"
         d="m 0,0 h -2.696 l -15.542,42.763 h 3.683 L -3.954,13.566 c 1.258,-3.414 2.516,-7.726 2.785,-8.714 h 0.089 c 0.27,0.988 1.618,5.121 3.056,8.804 l 11.139,29.107 h 3.504 L 0,0"
         style="fill:#040606;fill-opacity:1;fill-rule:nonzero;stroke:none"
         transform="matrix(1.3333333,0,0,-1.3333333,464.10933,364.916)" />
      <path
         id="path6"
         d="M 0,0 H 29.556 C 29.467,8.176 24.346,16.531 15.182,16.531 6.648,16.531 1.078,10.332 0,0 Z m 33.239,-2.066 v -0.808 h -33.33 v -0.809 c 0,-10.421 5.212,-18.776 15.992,-18.776 9.253,0 13.026,5.66 15.272,9.882 l 2.336,-2.336 c -2.246,-4.402 -7.636,-10.6 -17.698,-10.6 -11.77,0 -19.496,8.354 -19.496,22.279 0,13.476 7.368,22.64 18.867,22.64 11.41,0 18.057,-8.984 18.057,-21.472"
         style="fill:#040606;fill-opacity:1;fill-rule:nonzero;stroke:none"
         transform="matrix(1.3333333,0,0,-1.3333333,498.796,332.33467)" />
      <path
         id="path7"
         d="m 0,0 c -1.168,0.269 -2.246,0.359 -3.233,0.359 -8.086,0 -12.579,-7.906 -12.579,-15.093 v -25.604 h -3.324 V 2.425 h 3.324 v -8.804 c 1.259,4.762 6.11,9.883 12.309,9.883 1.078,0 2.335,0 3.503,-0.449 L 0,0"
         style="fill:#040606;fill-opacity:1;fill-rule:nonzero;stroke:none"
         transform="matrix(1.3333333,0,0,-1.3333333,585.452,311.132)" />
      <path
         id="path8"
         d="m 0,0 c -2.964,3.863 -7.636,6.199 -12.847,6.199 -6.109,-0.09 -10.87,-2.875 -10.87,-8.176 0,-5.21 3.325,-7.007 9.703,-8.534 l 5.121,-1.258 c 7.456,-1.797 13.206,-4.222 13.206,-11.589 0,-7.816 -6.559,-12.487 -15.992,-12.487 -8.265,0 -14.284,4.132 -17.069,7.815 l 2.336,2.516 c 3.145,-4.133 8.175,-7.367 15.092,-7.367 8.176,0.09 12.129,3.863 12.129,9.253 -0.09,5.75 -4.313,7.367 -10.151,8.714 l -6.199,1.528 c -6.918,1.617 -11.68,4.312 -11.68,11.14 0,7.277 6.559,11.229 14.734,11.32 7.007,0 11.588,-2.875 14.554,-6.469 L 0,0"
         style="fill:#040606;fill-opacity:1;fill-rule:nonzero;stroke:none"
         transform="matrix(1.3333333,0,0,-1.3333333,629.32533,318.55867)" />
      <path
         id="path9"
         d="M 0,0 H -3.324 V 42.763 H 0 Z m 0,50.759 h -3.324 v 8.175 H 0 Z"
         style="fill:#040606;fill-opacity:1;fill-rule:nonzero;stroke:none"
         transform="matrix(1.3333333,0,0,-1.3333333,654.66933,364.916)" />
      <path
         id="path10"
         d="m 0,0 c -1.797,-1.168 -4.851,-2.066 -7.456,-2.066 -2.516,0 -4.762,0.719 -6.02,2.606 -0.989,1.437 -1.438,3.054 -1.438,7.007 v 30.994 h -8.624 v 3.054 h 8.624 v 16.441 l 3.324,0.718 V 41.595 H -0.988 V 38.541 H -11.59 V 7.636 c 0,-2.245 0.181,-3.683 0.719,-4.761 0.629,-1.168 1.797,-1.887 4.043,-1.887 2.516,0 5.301,1.079 6.828,2.246 V 0"
         style="fill:#040606;fill-opacity:1;fill-rule:nonzero;stroke:none"
         transform="matrix(1.3333333,0,0,-1.3333333,699.19733,363.35867)" />
      <path
         id="path11"
         d="M 0,0 H 3.3989 V -8.175 H 0 Z m -16.248,0 h 3.4009 v -8.175 h -3.4009 z m 20.38,-34.767 c -0.629,-0.449 -2.875,-0.898 -5.929,-1.438 l -6.469,-1.167 c -6.019,-1.078 -12.398,-2.426 -12.398,-9.703 0,-6.379 4.402,-10.062 11.05,-10.062 8.984,0 13.746,7.098 13.746,14.464 z m -26.951,6.737 c -0.091,8.715 6.827,12.847 15.361,12.847 4.313,0 9.253,-0.898 12.128,-4.401 1.529,-1.887 2.516,-4.492 2.516,-8.625 v -22.729 c 0,-3.773 0.629,-5.84 4.223,-5.84 1.168,0 2.066,0.18 2.874,0.45 v -2.695 c -0.719,-0.27 -2.246,-0.539 -3.773,-0.539 -4.132,0 -6.378,1.796 -6.378,6.378 0,0.539 0,1.078 0.089,1.707 H 4.132 c -1.887,-4.402 -6.378,-8.534 -14.644,-8.534 -9.163,0 -13.655,5.749 -13.655,12.936 0,3.235 1.078,6.019 3.234,7.995 2.336,2.157 5.929,3.505 10.87,4.313 l 11.679,1.977 c 2.067,0.359 2.516,0.808 2.516,2.515 v 1.437 c 0,7.367 -3.594,10.781 -11.769,10.781 -8.714,0 -12.218,-4.313 -12.218,-11.589 l -2.964,1.616"
         style="fill:#040606;fill-opacity:1;fill-rule:nonzero;stroke:none"
         transform="matrix(1.3333333,0,0,-1.3333333,741.21067,286.33733)" />
      <path
         id="path12"
         d="m 0,0 c -1.797,-1.168 -4.851,-2.066 -7.457,-2.066 -2.515,0 -4.762,0.719 -6.019,2.606 -0.989,1.437 -1.438,3.054 -1.438,7.007 v 30.994 h -8.624 v 3.054 h 8.624 v 16.441 l 3.324,0.718 V 41.595 H -0.988 V 38.541 H -11.59 V 7.636 c 0,-2.245 0.181,-3.683 0.719,-4.761 0.629,-1.168 1.797,-1.887 4.043,-1.887 2.516,0 5.301,1.079 6.828,2.246 V 0"
         style="fill:#040606;fill-opacity:1;fill-rule:nonzero;stroke:none"
         transform="matrix(1.3333333,0,0,-1.3333333,795.56133,363.35867)" />
      <path
         id="path13"
         d="M 0,0 H -4.258 L -28.657,34.791 -42.852,20.303 V 0 h -3.362 v 61.09 h 3.362 V 24.975 L -6.544,61.09 h 4.479 L -26.053,37.102 0,0"
         style="fill:#040606;fill-opacity:1;fill-rule:nonzero;stroke:none"
         transform="matrix(1.3333333,0,0,-1.3333333,422.19733,472.43867)" />
      <path
         id="path14"
         d="M 0,0 C 9.253,0 15.361,7.456 15.361,19.494 15.361,31.802 9.432,39.169 0,39.169 -9.344,39.169 -15.273,31.712 -15.273,19.494 -15.273,7.366 -9.164,0 0,0 Z m 0,42.044 c 11.858,0 18.955,-9.074 18.955,-22.64 C 18.955,6.018 11.678,-2.875 0,-2.875 c -11.59,0 -18.867,8.893 -18.867,22.279 0,13.566 7.007,22.64 18.867,22.64"
         style="fill:#040606;fill-opacity:1;fill-rule:nonzero;stroke:none"
         transform="matrix(1.3333333,0,0,-1.3333333,451.788,470.04267)" />
      <path
         id="path15"
         d="m 0,0 h -3.324 v 23.358 c 0,10.511 -1.258,17.428 -11.679,17.428 -4.402,0 -7.547,-1.617 -9.793,-3.863 -2.784,-2.965 -3.953,-7.187 -3.953,-11.05 V 0 h -3.324 v 42.762 h 3.324 v -7.995 h 0.09 c 1.528,4.222 6.109,9.074 14.464,9.074 6.109,0 9.882,-2.336 12.039,-6.199 C -0.629,34.857 0,31.173 0,26.052 V 0"
         style="fill:#040606;fill-opacity:1;fill-rule:nonzero;stroke:none"
         transform="matrix(1.3333333,0,0,-1.3333333,533.94267,472.43867)" />
      <path
         id="path16"
         d="m 0,0 c -2.964,3.863 -7.636,6.199 -12.847,6.199 -6.109,-0.09 -10.87,-2.875 -10.87,-8.176 0,-5.21 3.324,-7.007 9.703,-8.534 l 5.121,-1.258 c 7.456,-1.797 13.206,-4.222 13.206,-11.589 0,-7.816 -6.559,-12.487 -15.992,-12.487 -8.266,0 -14.284,4.132 -17.069,7.815 l 2.336,2.516 c 3.145,-4.132 8.175,-7.367 15.092,-7.367 8.176,0.09 12.129,3.863 12.129,9.253 -0.09,5.75 -4.313,7.367 -10.151,8.715 l -6.199,1.527 c -6.918,1.617 -11.68,4.313 -11.68,11.14 0,7.277 6.559,11.23 14.734,11.32 7.007,0 11.588,-2.875 14.553,-6.469 L 0,0"
         style="fill:#040606;fill-opacity:1;fill-rule:nonzero;stroke:none"
         transform="matrix(1.3333333,0,0,-1.3333333,584.544,426.08267)" />
      <path
         id="path17"
         d="m 0,0 c -1.797,-1.167 -4.853,-2.066 -7.458,-2.066 -2.514,0 -4.761,0.719 -6.019,2.606 -0.988,1.437 -1.437,3.054 -1.437,7.007 v 30.994 h -8.624 v 3.054 h 8.624 v 16.441 l 3.324,0.719 V 41.595 H -0.989 V 38.541 H -11.59 V 7.637 c 0,-2.246 0.18,-3.683 0.719,-4.762 0.629,-1.168 1.797,-1.887 4.042,-1.887 2.516,0 5.3,1.079 6.829,2.247 L 0,0"
         style="fill:#040606;fill-opacity:1;fill-rule:nonzero;stroke:none"
         transform="matrix(1.3333333,0,0,-1.3333333,628.4,470.88267)" />
      <path
         id="path18"
         d="m 0,0 c -0.628,-0.449 -2.875,-0.898 -5.929,-1.438 l -6.468,-1.167 c -6.02,-1.078 -12.398,-2.426 -12.398,-9.703 0,-6.379 4.402,-10.061 11.05,-10.061 8.983,0 13.745,7.097 13.745,14.463 z m -26.951,6.738 c -0.09,8.714 6.828,12.847 15.362,12.847 4.312,0 9.253,-0.899 12.128,-4.402 1.528,-1.887 2.516,-4.492 2.516,-8.625 v -22.729 c 0,-3.773 0.628,-5.84 4.222,-5.84 1.168,0 2.067,0.18 2.875,0.45 v -2.695 c -0.719,-0.27 -2.246,-0.539 -3.773,-0.539 -4.133,0 -6.379,1.796 -6.379,6.378 0,0.539 0,1.078 0.089,1.707 H 0 c -1.887,-4.402 -6.378,-8.534 -14.644,-8.534 -9.162,0 -13.655,5.749 -13.655,12.936 0,3.235 1.078,6.019 3.234,7.996 2.336,2.156 5.929,3.504 10.871,4.312 L -2.516,1.977 C -0.449,2.336 0,2.785 0,4.492 v 1.437 c 0,7.367 -3.594,10.781 -11.769,10.781 -8.713,0 -12.218,-4.312 -12.218,-11.589 l -2.964,1.617"
         style="fill:#040606;fill-opacity:1;fill-rule:nonzero;stroke:none"
         transform="matrix(1.3333333,0,0,-1.3333333,675.40533,440.21733)" />
      <path
         id="path19"
         d="m 0,0 h -3.324 v 23.358 c 0,10.511 -1.258,17.428 -11.679,17.428 -4.402,0 -7.546,-1.617 -9.791,-3.863 -2.786,-2.965 -3.954,-7.187 -3.954,-11.05 V 0 h -3.324 v 42.762 h 3.324 v -7.995 h 0.09 c 1.527,4.222 6.109,9.074 14.464,9.074 6.109,0 9.882,-2.336 12.038,-6.199 C -0.629,34.857 0,31.173 0,26.052 V 0"
         style="fill:#040606;fill-opacity:1;fill-rule:nonzero;stroke:none"
         transform="matrix(1.3333333,0,0,-1.3333333,743.15333,472.43867)" />
      <path
         id="path20"
         d="m 0,0 h -30.815 v 2.515 l 24.976,37.193 h -24.167 v 3.054 h 28.12 L -1.797,40.247 -26.952,3.054 H 0 V 0"
         style="fill:#040606;fill-opacity:1;fill-rule:nonzero;stroke:none"
         transform="matrix(1.3333333,0,0,-1.3333333,796.372,472.43867)" />
      <path
         id="path21"
         d="M 0,0 H -68.618 V 68.616 H 0 Z m 0,-11.7 h -33.54 v 9.902 H 0 Z m 0,-11.728 h -33.54 v 9.93 H 0 Z m 0,-11.745 h -33.54 v 9.947 H 0 Z m 0,-11.719 h -33.54 v 9.92 H 0 Z M 0,-70.426 H -33.54 V -48.69 H 0 Z m 0,-35.131 h -33.54 v 33.333 H 0 Z m 0,-32.956 -15.528,31.158 H 0 Z m -16.984,30.048 16.132,-32.371 -32.139,0.001 z m -16.556,-29.422 v 30.532 h 15.099 z M 0,-175.945 h -33.54 v 33.311 H 0 Z m 0,-17.591 h -33.54 v 15.793 H 0 Z m 0,-17.717 h -33.54 v 15.919 H 0 Z M -66.671,-1.798 h 29.049 l -14.524,-9.719 z m 31.333,-21.63 h -33.28 v 20.769 l 16.472,-11.022 16.808,11.247 z m 0,-11.745 h -33.28 v 9.947 h 33.28 z m 0,-35.253 h -33.29 v 10.9 h -1.798 v -6.797 l -11.049,29.351 h 46.137 z m 0,-35.131 h -9.932 v 11.303 h -1.798 v -11.303 H -57 v 11.303 h -1.798 v -11.303 h -9.83 v 33.333 h 33.29 z m 0,-17.595 h -9.9319 v 15.797 h 9.9319 z m 0,-17.683 h -9.9319 v 15.884 h 9.9319 z m 0,-35.11 h -9.932 v 33.312 l 9.932,-10e-4 z m 0,-17.591 h -9.9319 v 15.793 h 9.9319 z M -57,-177.743 h 9.932 v -15.793 H -57 Z m 9.932,0 z m -5.865,35.11 v -27.319 h 1.798 v 27.319 h 4.067 v -33.312 H -57 v 33.312 z m 5.865,19.481 H -57 v 15.797 h 9.932 z m -9.932,0 z m 9.932,-1.799 v -15.884 h -4.067 v 6.294 h -1.798 v -6.294 H -57 v 15.884 z m 11.73,-86.302 h -33.29 v 15.919 h 33.29 z m -35.088,35.308 H -80.46 v 33.313 l 10.034,-0.001 z m 0,-17.591 H -80.46 v 15.793 h 10.034 z m 0,-17.717 h -33.494 v 15.919 h 33.494 z m -35.289,140.827 h -33.318 v 33.459 h 46.121 l -11.005,-29.336 v 6.782 h -1.798 z m -10e-4,-35.131 h -9.933 v 11.303 h -1.798 v -11.303 h -9.932 v 11.303 h -1.798 v -11.303 h -9.856 v 33.333 h 33.318 z m 0,-17.595 h -9.933 v 15.797 h 9.933 z m -0.001,-17.681 h -9.932 v 15.882 h 9.933 z m -0.001,-35.112 h -9.931 v 33.313 h 9.932 z m 0,-17.591 h -9.931 v 15.793 h 9.931 z m -21.661,15.793 h 9.932 v -15.793 h -9.932 z m 9.932,0 z m -5.882,35.112 v -27.313 h 1.798 v 27.313 l 4.084,-0.001 v -33.313 h -9.932 v 33.314 z m 5.882,19.479 h -9.932 v 15.797 h 9.932 z m -9.932,0 z m 9.932,-1.799 v -15.882 h -4.084 v 6.292 h -1.798 v -6.292 h -4.05 v 15.882 z m 11.729,-86.302 h -33.315 v 15.919 h 33.315 z m -35.113,223.701 -35.279,23.557 -0.002,-24.244 h -15.799 v 46.922 l -17.523,0.002 v 9.931 h 68.603 z m -33.483,-0.687 0.002,20.88 31.27,-20.88 z M -140.831,0 h -33.483 v 9.963 h 33.483 z m -31.395,-1.798 h 29.135 l -14.514,-9.725 z m 31.395,-21.63 h -33.485 l 0.001,20.859 16.714,-11.117 16.77,11.237 z m 0,-11.741 h -33.486 l 0.001,9.943 h 33.485 z m 0,-11.723 h -33.487 l 0.001,9.925 h 33.486 z m 0,-11.73 h -33.488 l 10e-4,9.932 h 33.487 z m 0,-11.804 h -33.488 v 10.006 h 33.488 z m 0,-70.407 -68.615,0.002 0.004,68.607 h 68.611 z m 0,-32.502 -15.378,30.704 h 15.378 z m -16.831,29.59 16.126,-32.2 h -32.222 z m -16.643,-29.27 v 30.384 h 15.189 z m 33.474,-20.521 h -33.474 v 15.793 h 33.474 z m 0,-13.454 c -3.2,5.987 -9.646,9.994 -16.875,10.039 -0.032,0.001 -0.065,0.001 -0.097,0.001 -6.951,0 -13.139,-4.028 -16.502,-10.41 v 12.026 h 33.474 z m -33.185,-4.263 c 2.525,7.535 8.909,12.504 16.212,12.504 0.029,0 0.058,0 0.087,0 7.858,-0.05 14.693,-5.245 16.655,-12.504 z m -2.087,38.172 -15.292,30.451 15.292,-0.001 z m 0,-20.455 h -33.346 l 0.001,15.793 h 33.345 z m 0,-13.368 c -3.154,6.051 -9.438,9.982 -16.679,10.017 -0.035,0.001 -0.071,0.001 -0.106,0.001 -6.99,0 -13.202,-4.029 -16.562,-10.411 v 11.963 h 33.347 z m -33.077,-4.349 c 2.499,7.57 8.924,12.568 16.293,12.568 0.032,0 0.064,0 0.096,0 7.868,-0.039 14.488,-5.154 16.453,-12.568 z m -2.053,269.938 -35.278,0.004 0.003,-11.736 h -15.773 v 21.663 h 51.049 z m 0,-11.731 h -16.482 l -14.884,9.936 31.366,-0.004 z m -0.001,-11.001 -13.787,9.203 h 13.788 z m -0.001,-12.461 h -33.469 l -0.008,32.645 33.478,-22.346 z m -10e-4,-11.731 h -33.465 l -0.003,9.933 h 33.469 z m 0,-11.761 h -33.463 l -0.002,9.963 h 33.465 z m -31.326,-1.798 h 29.121 l -14.567,-9.72 z m 31.324,-21.63 h -33.455 l -0.005,20.894 16.69,-11.146 16.772,11.191 z m 0,-11.741 h -33.452 l -0.003,9.943 h 33.455 z m -0.003,-35.257 h -68.627 v 33.459 h 68.629 z m -0.004,-70.405 -68.623,10e-4 v 68.606 h 68.627 z m -0.003,-52.705 h -68.62 v 50.908 l 68.623,-0.002 z m -0.001,-13.291 c -3.154,5.965 -9.445,9.847 -16.707,9.898 -0.03,0 -0.057,0 -0.087,0 -6.925,0 -13.267,-4.111 -16.652,-10.429 v 12.024 h 33.447 z m -33.172,-4.426 c 2.491,7.461 9.164,12.547 16.454,12.526 7.941,-0.056 14.599,-5.158 16.518,-12.526 z m -2.072,4.445 c -3.143,5.962 -9.395,9.836 -16.606,9.879 -0.031,0 -0.061,0 -0.092,0 -6.947,0 -13.316,-4.227 -16.677,-10.706 v 12.301 h 33.375 z m -32.966,-4.445 c 2.534,7.471 9.139,12.538 16.35,12.526 7.888,-0.047 14.505,-5.15 16.418,-12.526 z m -0.409,197.755 h 33.374 l 0.005,-21.671 h -33.379 z m 0,11.7 h 15.789 V -11.7 h -15.789 z m 0,11.761 h 15.789 V 0 h -15.789 z m 0,11.731 h 15.789 v -9.933 h -15.789 z m 0,11.722 15.789,0.004 v -9.928 h -15.789 z m 0,11.739 h 15.789 v -9.937 l -15.789,-0.004 z m 0,11.73 h 15.789 v -9.932 h -15.789 z m 0,11.731 h 15.789 v -9.933 h -15.789 z m 17.587,-70.414 h 15.784 l 0.003,-9.902 h -15.787 z m 0,11.761 h 15.782 L -246.497,0 h -15.784 z m 0,11.731 h 15.779 l 0.002,-9.933 h -15.781 z m 0,11.726 15.776,0.004 0.002,-9.932 h -15.778 z m 0,11.735 h 15.773 l 0.002,-9.933 -15.775,-0.004 z m 69.447,-188.927 16.156,-32.173 h -32.26 z m -16.612,1.142 h 15.172 l -15.174,-30.315 z m 0.006,105.663 h 33.324 l -0.002,-33.459 h -33.324 z m 0.001,11.741 h 33.324 v -9.943 H -209.44 Z M -191.911,0 v 9.963 h 15.799 L -176.113,0 Z m 15.798,-1.798 -0.001,-9.914 h -15.797 v 9.914 z m -33.326,-11.713 h 33.325 l -0.001,-9.917 h -33.324 z m 0.001,11.713 h 15.729 v -9.914 h -15.73 z m 10e-4,11.761 h 15.728 V 0 h -15.729 z m 0.001,11.731 h 15.727 v -9.933 h -15.728 z m 0,10.896 13.63,-9.098 h -13.63 z m 15.727,0.834 v -9.168 l -13.736,9.168 z m -15.726,11.732 h 15.726 v -9.934 h -15.727 z m 0.001,11.73 15.725,-0.001 v -9.931 h -15.726 z m 70.401,-234.629 h 9.856 v -15.793 h -9.856 z m 0,35.112 h 9.856 v -33.314 h -9.856 z m 0,17.68 h 9.856 v -15.882 h -9.856 z m 0,17.596 h 9.856 v -15.797 h -9.856 z m 0,82.129 h 33.321 v -9.943 h -33.321 z m 0,11.703 33.321,0.006 v -9.911 h -33.321 z m 0,11.725 h 33.321 v -9.921 l -33.321,-0.006 z m 35.119,-9.92 v 9.92 h 33.498 v -9.914 z m 17.59,-11.71 v 9.914 l 15.908,0.003 v -9.917 z m 0.428,-1.798 h 15.48 v -9.947 h -11.735 z m -6.288,-80.331 0.002,33.333 h 9.924 v -33.333 z m -0.001,-17.595 0.001,15.797 h 9.926 v -15.797 z m 5.861,-17.682 v 6.282 h -1.799 v -6.282 h -4.063 l 0.001,15.883 h 9.927 v -15.883 z m -5.864,-35.111 0.002,33.313 h 4.063 v -27.35 h 1.799 v 27.35 h 4.066 v -33.313 z m 0,-1.798 h 9.93 v -15.793 h -9.931 z m 3.681,152.517 -3.73,-9.943 h -11.677 v 9.943 z m 1.284,-6.305 4.845,-38.895 h -9.684 z m -0.9,8.103 h -15.791 v 9.911 l 15.791,0.003 z m -15.419,-46.998 14.465,38.561 -4.797,-38.561 z m -0.376,-35.131 0.001,33.333 h 9.936 l -0.002,-33.333 z m 0,-17.595 v 15.797 h 9.935 l -10e-4,-15.797 z m 0,-17.681 v 15.882 h 9.934 v -15.883 z m 9.931,-36.91 -0.001,-15.793 h -9.932 l 0.001,15.793 z m -9.932,1.798 10e-4,33.313 h 9.933 l -0.002,-33.313 z m 23.353,105.519 -4.828,38.761 14.59,-38.761 z m 10.14,-35.131 H -80.46 v 33.333 h 10.034 z m 0,-17.595 H -80.46 v 15.797 h 10.034 z m -10.034,0 z m 11.832,-54.591 h 9.83 v -15.793 h -9.83 z m 9.83,0 z m 0,1.798 h -9.83 v 33.312 h 9.83 z m -9.83,0 z m 9.83,52.793 h -9.83 v 15.797 h 9.83 z m -9.83,0 z m 9.83,-1.799 v -15.884 l -9.83,0.001 H -80.46 v 15.883 h 10.034 v -15.867 h 1.798 v 15.867 z m -80.235,193.567 h 68.617 V 0 h -68.617 z M 1.798,70.414 H -281.666 V -213.051 H 1.798 Z"
         style="fill:#040606;fill-opacity:1;fill-rule:nonzero;stroke:none"
         transform="matrix(1.3333333,0,0,-1.3333333,1263.744,282.86133)" />
    </g>
  </g>
</svg>
